<svg width="24" height="24" viewBox="0 0 24 24" fill="none" xmlns="http://www.w3.org/2000/svg">
<path d="M23.7621 21.5472V9.46316C23.7621 8.77396 23.3945 8.1307 22.8891 7.71718C21.7404 6.84419 20.8215 6.10904 15.3538 2.15762C14.5727 1.60626 13.0565 0.227854 11.9997 0.273801C10.897 0.227854 9.38071 1.60626 8.59962 2.15762C3.13195 6.10904 2.21302 6.84419 1.06435 7.71718C0.558932 8.1307 0.237305 8.77396 0.237305 9.46316V21.5472C0.237305 22.7877 1.20219 23.7526 2.44275 23.7526H21.5566C22.7512 23.7526 23.7621 22.7877 23.7621 21.5472ZM20.7296 12.5416L21.1431 13.1389C21.189 13.1848 21.189 13.2767 21.189 13.3686C21.189 13.4605 21.1431 13.5984 21.0512 13.6443C19.9944 14.4254 18.5241 15.5281 16.2268 17.1822C15.2619 17.8714 13.6078 19.3877 11.9997 19.3417C10.3456 19.3877 8.69151 17.8714 7.72663 17.1822C5.42929 15.5281 3.95899 14.4254 2.90222 13.6443C2.81032 13.5984 2.76438 13.4605 2.76438 13.3686C2.76438 13.2767 2.76438 13.1848 2.81032 13.1389L3.22385 12.5416C3.36169 12.3578 3.59142 12.3119 3.77521 12.4497C4.78604 13.2308 6.30228 14.3335 8.59962 15.9876C9.38071 16.539 10.897 17.9174 11.9997 17.8714C13.0565 17.9174 14.5727 16.539 15.3538 15.9876C17.6511 14.3335 19.1674 13.2308 20.1782 12.4497C20.362 12.3119 20.5917 12.3578 20.7296 12.5416Z" fill="white"/>
</svg>
