<svg width="21" height="22" viewBox="0 0 21 22" fill="none" xmlns="http://www.w3.org/2000/svg">
<path d="M17.6971 3.73064C15.8133 1.80087 13.2402 0.698151 10.4834 0.698151C4.87793 0.698151 0.283251 5.29283 0.283251 10.8983C0.283251 12.7362 0.788666 14.4822 1.66165 15.9984L0.237305 21.2823L5.61308 19.9039C7.12932 20.685 8.78341 21.1445 10.4834 21.1445C16.1349 21.1445 20.8215 16.5498 20.8215 10.9443C20.8215 8.18748 19.6268 5.6604 17.6971 3.73064ZM10.4834 19.3985C8.96719 19.3985 7.4969 18.985 6.16444 18.2039L5.88876 18.0201L2.67248 18.8931L3.54547 15.7687L3.31574 15.4471C2.4887 14.0687 2.02923 12.5065 2.02923 10.8983C2.02923 6.25771 5.84281 2.44413 10.5294 2.44413C12.7808 2.44413 14.8943 3.31712 16.5025 4.92525C18.1106 6.53339 19.0755 8.64694 19.0755 10.9443C19.0755 15.5849 15.17 19.3985 10.4834 19.3985ZM15.17 13.0578C14.8943 12.92 13.6538 12.3227 13.424 12.2308C13.1943 12.1389 13.0105 12.093 12.8267 12.3686C12.6889 12.5984 12.1835 13.1957 12.0456 13.3795C11.8618 13.5173 11.724 13.5632 11.4943 13.4254C9.97802 12.6903 9.01314 12.093 8.00231 10.3929C7.72663 9.93345 8.27799 9.9794 8.73746 9.01452C8.82935 8.83073 8.78341 8.69289 8.73746 8.55505C8.69151 8.41721 8.14015 7.17665 7.95636 6.67123C7.72663 6.16582 7.54284 6.21176 7.35906 6.21176C7.22122 6.21176 7.03743 6.21176 6.89959 6.21176C6.7158 6.21176 6.44012 6.25771 6.21039 6.53339C5.98065 6.80907 5.3374 7.40638 5.3374 8.64694C5.3374 9.93345 6.21039 11.1281 6.34823 11.3119C6.48607 11.4497 8.14015 14.0227 10.7132 15.1254C12.3213 15.8606 12.9646 15.9065 13.7916 15.7687C14.2511 15.7227 15.2619 15.1714 15.4916 14.5741C15.7214 13.9768 15.7214 13.4714 15.6295 13.3795C15.5835 13.2416 15.3997 13.1957 15.17 13.0578Z" fill="white"/>
</svg>
